<svg width="46" height="37" viewBox="0 0 46 37" fill="none" xmlns="http://www.w3.org/2000/svg">
<path d="M8.75819 36.2881V33.9695C8.75819 33.0804 8.21703 32.5009 7.28945 32.5009C6.82575 32.5009 6.32332 32.6555 5.97546 33.1579C5.70505 32.7327 5.31864 32.5009 4.73892 32.5009C4.35233 32.5009 3.96609 32.6167 3.65678 33.0419V32.5782H2.84521V36.2881H3.65678V34.2399C3.65678 33.583 4.00464 33.2737 4.5458 33.2737C5.08661 33.2737 5.35737 33.6216 5.35737 34.2399V36.2881H6.16893V34.2399C6.16893 33.583 6.55517 33.2737 7.0576 33.2737C7.59876 33.2737 7.86917 33.6216 7.86917 34.2399V36.2881H8.75819ZM20.7769 32.5782H19.4631V31.4575H18.6515V32.5782H17.9173V33.3123H18.6514V35.0129C18.6514 35.8632 18.9992 36.3654 19.9268 36.3654C20.2747 36.3654 20.6609 36.2496 20.9317 36.095L20.6996 35.3993C20.4678 35.5539 20.1974 35.5926 20.0041 35.5926C19.6177 35.5926 19.4631 35.3607 19.4631 34.9741V33.3123H20.7769V32.5782ZM27.656 32.5007C27.1923 32.5007 26.8832 32.7327 26.6899 33.0419V32.5782H25.8783V36.2881H26.6899V34.2013C26.6899 33.583 26.9603 33.2352 27.4627 33.2352C27.6173 33.2352 27.8106 33.2739 27.9652 33.3125L28.197 32.5396C28.0424 32.5009 27.8106 32.5007 27.656 32.5007ZM17.2603 32.8873C16.8737 32.6167 16.3327 32.5009 15.753 32.5009C14.8256 32.5009 14.2073 32.9646 14.2073 33.6989C14.2073 34.3173 14.671 34.665 15.4826 34.781L15.869 34.8198C16.2941 34.8969 16.526 35.0129 16.526 35.2062C16.526 35.4766 16.2168 35.6699 15.6757 35.6699C15.1347 35.6699 14.7095 35.4766 14.439 35.2835L14.0525 35.9017C14.4777 36.2109 15.0574 36.3654 15.6369 36.3654C16.7191 36.3654 17.3375 35.8632 17.3375 35.1674C17.3375 34.5104 16.8351 34.1626 16.0621 34.0467L15.6757 34.008C15.3278 33.9693 15.0574 33.8922 15.0574 33.6603C15.0574 33.3897 15.3278 33.2352 15.753 33.2352C16.2168 33.2352 16.6805 33.4283 16.9124 33.5443L17.2603 32.8873ZM38.8248 32.5009C38.3609 32.5009 38.0518 32.7327 37.8585 33.0419V32.5782H37.0469V36.2881H37.8585V34.2013C37.8585 33.583 38.1291 33.2352 38.6313 33.2352C38.7861 33.2352 38.9794 33.2739 39.1339 33.3125L39.3658 32.5396C39.2112 32.5009 38.9794 32.5009 38.8248 32.5009ZM28.4676 34.4332C28.4676 35.5539 29.2404 36.3654 30.4386 36.3654C30.9796 36.3654 31.366 36.2496 31.7524 35.9405L31.366 35.2835C31.0568 35.5153 30.7477 35.6311 30.3999 35.6311C29.7429 35.6311 29.2792 35.1674 29.2792 34.4332C29.2792 33.7376 29.7429 33.2737 30.3999 33.2352C30.7477 33.2352 31.0568 33.351 31.366 33.583L31.7524 32.926C31.366 32.6167 30.9796 32.5009 30.4386 32.5009C29.2404 32.5009 28.4676 33.3125 28.4676 34.4332ZM35.965 34.4332V32.5782H35.1534V33.0419C34.8828 32.6942 34.4964 32.5009 33.994 32.5009C32.9506 32.5009 32.139 33.3125 32.139 34.4332C32.139 35.5539 32.9506 36.3654 33.994 36.3654C34.535 36.3654 34.9216 36.1723 35.1534 35.8244V36.2881H35.965V34.4332ZM32.9891 34.4332C32.9891 33.7762 33.4143 33.2352 34.1098 33.2352C34.7668 33.2352 35.2307 33.7376 35.2307 34.4332C35.2307 35.0902 34.7668 35.6311 34.1098 35.6311C33.4143 35.5924 32.9891 35.0902 32.9891 34.4332ZM23.2891 32.5009C22.2069 32.5009 21.4339 33.2737 21.4339 34.4332C21.4339 35.5926 22.2067 36.3654 23.3276 36.3654C23.8686 36.3654 24.4098 36.2109 24.8349 35.8632L24.4483 35.2835C24.1392 35.5153 23.7528 35.6699 23.3664 35.6699C22.8639 35.6699 22.3615 35.438 22.2455 34.7808H24.9895V34.4719C25.0282 33.2737 24.3327 32.5009 23.2891 32.5009ZM23.2891 33.1964C23.7913 33.1964 24.1394 33.5058 24.2165 34.0855H22.2842C22.3615 33.583 22.7094 33.1964 23.2891 33.1964ZM43.4236 34.4332V31.1096H42.612V33.0419C42.3415 32.6942 41.955 32.5009 41.4526 32.5009C40.4092 32.5009 39.5976 33.3125 39.5976 34.4332C39.5976 35.5539 40.4092 36.3654 41.4526 36.3654C41.9938 36.3654 42.3802 36.1723 42.612 35.8244V36.2881H43.4236V34.4332ZM40.4479 34.4332C40.4479 33.7762 40.8729 33.2352 41.5686 33.2352C42.2256 33.2352 42.6893 33.7376 42.6893 34.4332C42.6893 35.0902 42.2256 35.6311 41.5686 35.6311C40.8729 35.5924 40.4479 35.0902 40.4479 34.4332ZM13.3183 34.4332V32.5782H12.5067V33.0419C12.2361 32.6942 11.8497 32.5009 11.3473 32.5009C10.3039 32.5009 9.4923 33.3125 9.4923 34.4332C9.4923 35.5539 10.3039 36.3654 11.3473 36.3654C11.8884 36.3654 12.2749 36.1723 12.5067 35.8244V36.2881H13.3183V34.4332ZM10.3039 34.4332C10.3039 33.7762 10.729 33.2352 11.4246 33.2352C12.0816 33.2352 12.5454 33.7376 12.5454 34.4332C12.5454 35.0902 12.0816 35.6311 11.4246 35.6311C10.729 35.5924 10.3039 35.0902 10.3039 34.4332Z" fill="#F6F6F6"/>
<path d="M17.762 14.3421C17.762 9.89789 19.8489 5.95591 23.0564 3.4052C20.6992 1.55023 17.7235 0.429527 14.4772 0.429527C6.78639 0.429527 0.564453 6.65146 0.564453 14.3421C0.564453 22.0326 6.78639 28.2547 14.4771 28.2547C17.7233 28.2547 20.699 27.134 23.0564 25.2789C19.8489 22.7669 17.762 18.7864 17.762 14.3421Z" fill="#EB001B"/>
<path d="M45.5872 14.3416C45.5872 22.0321 39.3652 28.2542 31.6746 28.2542C28.4283 28.2542 25.4526 27.1335 23.0952 25.2783C26.3415 22.7278 28.3897 18.7858 28.3897 14.3416C28.3897 9.89732 26.3027 5.95534 23.0952 3.40463C25.4524 1.54965 28.4283 0.428955 31.6746 0.428955C39.3652 0.428955 45.5873 6.68962 45.5873 14.3416H45.5872Z" fill="#F79E1B"/>
</svg>
