<svg width="33" height="30" viewBox="0 0 33 30" fill="none" xmlns="http://www.w3.org/2000/svg">
<path d="M16.075 0L32.1464 6.42857V8.57143H30.0035C30.0035 8.86161 29.8891 9.11272 29.6603 9.32478C29.4316 9.53683 29.1609 9.64286 28.8484 9.64286H3.30153C2.98903 9.64286 2.71838 9.53683 2.48959 9.32478C2.26079 9.11272 2.1464 8.86161 2.1464 8.57143H0.00354004V6.42857L16.075 0ZM4.28925 10.7143H8.57497V23.5714H10.7178V10.7143H15.0035V23.5714H17.1464V10.7143H21.4321V23.5714H23.575V10.7143H27.8607V23.5714H28.8484C29.1609 23.5714 29.4316 23.6775 29.6603 23.8895C29.8891 24.1016 30.0035 24.3527 30.0035 24.6429V25.7143H2.1464V24.6429C2.1464 24.3527 2.26079 24.1016 2.48959 23.8895C2.71838 23.6775 2.98903 23.5714 3.30153 23.5714H4.28925V10.7143ZM30.9913 26.7857C31.3038 26.7857 31.5744 26.8917 31.8032 27.1038C32.032 27.3158 32.1464 27.567 32.1464 27.8571V30H0.00354004V27.8571C0.00354004 27.567 0.117937 27.3158 0.346732 27.1038C0.575527 26.8917 0.846174 26.7857 1.15867 26.7857H30.9913Z" fill="black"/>
</svg>
