<svg width="31" height="30" viewBox="0 0 31 30" fill="none" xmlns="http://www.w3.org/2000/svg">
<g clip-path="url(#clip0_39_13)">
<path d="M15.5 0C13.5385 0 12.0385 1.5 12.0385 3.46154V10.3846C12.0385 12.3462 13.5385 13.8462 15.5 13.8462H22.4231L27.0385 18.4615V13.8462C29 13.8462 30.5 12.3462 30.5 10.3846V3.46154C30.5 1.5 29 0 27.0385 0H15.5ZM20.3323 3.46154H22.3146L24.2623 10.3846H22.5315L22.0619 8.65385H20.3312L19.8996 10.3846H18.3846L20.3323 3.46154ZM21.2692 4.61538C21.1538 5.07692 21.0246 5.64 20.9081 5.98615L20.585 7.5H21.9546L21.6292 5.985C21.3996 5.64 21.2692 5.07692 21.2692 4.61538ZM3.96154 11.5385C2 11.5385 0.5 13.0385 0.5 15V21.9231C0.5 23.8846 2 25.3846 3.96154 25.3846V30L8.57692 25.3846H15.5C17.4615 25.3846 18.9615 23.8846 18.9615 21.9231V15H15.5C13.3077 15 11.57 13.5 10.9931 11.5385H3.96154ZM9.26231 14.8915C11.2238 14.8915 12.1469 16.5069 12.1469 18.3531C12.1469 19.9685 11.5919 20.9931 10.6688 21.4546C11.1304 21.6854 11.6773 21.8077 12.2542 21.9231L11.8227 23.0769C11.015 22.8462 10.1773 22.4862 9.36962 22.1388C9.25423 22.0235 9.05231 22.0315 8.93692 22.0315C7.55231 21.9162 6.26923 20.7692 6.26923 18.4615C6.26923 16.5 7.41615 14.8915 9.26231 14.8915V14.8915ZM9.26231 16.1538C8.33923 16.1538 7.89154 17.1923 7.89154 18.4615C7.89154 19.8462 8.33923 20.7692 9.26231 20.7692C10.1854 20.7692 10.6677 19.7308 10.6677 18.4615C10.6677 17.1923 10.1854 16.1538 9.26231 16.1538V16.1538Z" fill="black"/>
</g>
<defs>
<clipPath id="clip0_39_13">
<rect width="30" height="30" fill="white" transform="translate(0.5)"/>
</clipPath>
</defs>
</svg>
