<svg width="27" height="25" viewBox="0 0 27 25" fill="none" xmlns="http://www.w3.org/2000/svg">
<path d="M23.75 0.5H10.4166V4.66667H13.75V6.33333H2.91663C1.49996 6.33333 0.416626 7.41667 0.416626 8.83333V18C0.416626 19.4167 1.49996 20.5 2.91663 20.5H3.74996V24.75L8.99996 20.5H14.5833V14.6667H23.75C25.1666 14.6667 26.25 13.5833 26.25 12.1667V3C26.25 1.58333 25.1666 0.5 23.75 0.5V0.5ZM9.41663 17.0833L8.99996 15.75H6.41663L5.91663 17.0833H3.91663L6.66663 9.66667H8.66663L11.4166 17.0833H9.41663ZM22.0833 10.5V12.1667C21 12.1667 19.8333 11.8333 18.8333 11.3333C17.8333 11.8333 16.6666 12.0833 15.5 12.1667L15.4166 10.5C16 10.5 16.5833 10.4167 17.1666 10.25C16.4166 9.5 15.9166 8.58333 15.6666 7.58333H17.4166C17.6666 8.33333 18.1666 8.91667 18.75 9.41667C19.6666 8.66667 20.25 7.58333 20.3333 6.33333H15.3333V4.66667H17.8333V3H19.5V4.66667H22.25L22.3333 5.5C22.4166 7.25 21.75 9 20.5 10.25C21.0833 10.4167 21.5833 10.5 22.0833 10.5V10.5Z" fill="black"/>
</svg>
