<svg width="25" height="24" viewBox="0 0 25 24" fill="none" xmlns="http://www.w3.org/2000/svg">
<path d="M13.25 5.75V4.5C13.25 3.83696 12.9866 3.20107 12.5178 2.73223C12.0489 2.26339 11.413 2 10.75 2H4.5C3.83696 2 3.20107 2.26339 2.73223 2.73223C2.26339 3.20107 2 3.83696 2 4.5V19.5C2 20.163 2.26339 20.7989 2.73223 21.2678C3.20107 21.7366 3.83696 22 4.5 22H10.75C11.413 22 12.0489 21.7366 12.5178 21.2678C12.9866 20.7989 13.25 20.163 13.25 19.5V18.25M22 12H10.125H22ZM19.5 15.75L23.25 12L19.5 8.25V15.75Z" stroke="black" stroke-width="2.5" stroke-linecap="round" stroke-linejoin="round"/>
</svg>
