<svg width="38" height="24" viewBox="0 0 38 24" fill="none" xmlns="http://www.w3.org/2000/svg">
<path d="M35.625 0.75H1.875C0.839648 0.75 0 1.58965 0 2.625V21.375C0 22.4104 0.839648 23.25 1.875 23.25H35.625C36.6604 23.25 37.5 22.4104 37.5 21.375V2.625C37.5 1.58965 36.6604 0.75 35.625 0.75ZM2.8125 20.4375V16.6875C4.88379 16.6875 6.5625 18.3662 6.5625 20.4375H2.8125ZM2.8125 7.3125V3.5625H6.5625C6.5625 5.63379 4.88379 7.3125 2.8125 7.3125ZM18.75 17.625C16.1607 17.625 14.0625 15.1061 14.0625 12C14.0625 8.89336 16.1613 6.375 18.75 6.375C21.3387 6.375 23.4375 8.89336 23.4375 12C23.4375 15.1072 21.3381 17.625 18.75 17.625ZM34.6875 20.4375H30.9375C30.9375 18.3662 32.6162 16.6875 34.6875 16.6875V20.4375ZM34.6875 7.3125C32.6162 7.3125 30.9375 5.63379 30.9375 3.5625H34.6875V7.3125Z" fill="black"/>
</svg>
