<svg width="23" height="28" viewBox="0 0 23 28" fill="none" xmlns="http://www.w3.org/2000/svg">
<path d="M1.7375 4.5875C0.8375 4.9875 0.25 5.8875 0.25 6.875V12.75C0.25 19.6875 5.05 26.175 11.5 27.75C17.95 26.175 22.75 19.6875 22.75 12.75V6.875C22.75 5.8875 22.1625 4.9875 21.2625 4.5875L12.5125 0.7C11.8625 0.4125 11.125 0.4125 10.4875 0.7L1.7375 4.5875ZM11.5 7.75C12.1875 7.75 12.75 8.3125 12.75 9C12.75 9.6875 12.1875 10.25 11.5 10.25C10.8125 10.25 10.25 9.6875 10.25 9C10.25 8.3125 10.8125 7.75 11.5 7.75ZM11.5 12.75C12.1875 12.75 12.75 13.3125 12.75 14V19C12.75 19.6875 12.1875 20.25 11.5 20.25C10.8125 20.25 10.25 19.6875 10.25 19V14C10.25 13.3125 10.8125 12.75 11.5 12.75Z" fill="black"/>
</svg>
