<svg width="45" height="45" viewBox="0 0 45 45" fill="none" xmlns="http://www.w3.org/2000/svg">
<path d="M24.3337 44.1C24.0736 44.1 23.8528 43.9017 23.8303 43.6387C23.6798 41.9597 22.597 40.1526 20.5748 40.1526C18.7186 40.1526 17.6386 41.1975 16.4995 42.885C16.3448 43.1184 16.0298 43.1775 15.7964 43.0228C15.5643 42.8667 15.5039 42.5503 15.66 42.3197C16.7751 40.6673 18.142 39.1387 20.5748 39.1387C23.2326 39.1387 24.6473 41.4253 24.8386 43.5487C24.8639 43.8272 24.6586 44.0733 24.3801 44.0986C24.3633 44.0986 24.3478 44.1 24.3337 44.1ZM29.8518 42.7725C29.7618 42.7725 29.6704 42.7472 29.5875 42.6966C26.8861 41.0428 25.2084 38.3836 25.2084 35.7539C25.2084 34.792 25.4025 33.7317 25.7245 32.9175C25.8286 32.6573 26.1197 32.5336 26.3826 32.6334C26.6428 32.7375 26.7693 33.0314 26.6667 33.2916C26.339 34.1184 26.2223 35.1056 26.2223 35.7539C26.2223 38.032 27.7157 40.3608 30.119 41.8331C30.3567 41.9794 30.4326 42.2901 30.285 42.5292C30.1879 42.6853 30.022 42.7725 29.8518 42.7725ZM11.9742 41.3001C11.8097 41.3001 11.6493 41.22 11.5523 41.0737C11.3976 40.8403 11.4609 40.5253 11.6943 40.372C15.6656 37.7381 18.8761 35.1858 22.1062 32.0976C23.8036 30.4734 26.6484 27.2166 26.6484 23.6475C26.6484 21.4397 25.0804 19.1573 22.4564 19.1573C20.0376 19.1573 18.2179 21.8897 16.4587 24.5334C15.532 25.9242 14.6573 27.2391 13.687 28.1869C11.032 30.7828 8.28138 32.3269 5.21998 33.9384C4.97107 34.0692 4.66591 33.9722 4.53654 33.7275C4.40576 33.4786 4.50138 33.1734 4.74888 33.0441C7.73857 31.4705 10.4217 29.9658 12.9797 27.4626C13.8726 26.5908 14.7192 25.3195 15.615 23.9737C17.5218 21.1092 19.4948 18.1476 22.4564 18.1476C25.7147 18.1476 27.6623 20.9461 27.6623 23.6503C27.6623 27.5962 24.6192 31.0964 22.8065 32.8317C19.5314 35.9648 16.2773 38.5509 12.254 41.2186C12.1668 41.2734 12.0698 41.3001 11.9742 41.3001ZM35.3995 39.6844C35.3376 39.6844 35.2743 39.6717 35.2139 39.6492C30.5972 37.8351 29.6268 34.1001 29.6268 31.2876C29.6268 30.0698 29.8673 28.9251 30.1218 27.7144C30.4214 26.28 30.7322 24.7992 30.7322 22.9176C30.7322 19.5384 27.8564 14.8584 22.4564 14.8584C17.9086 14.8584 15.1593 18.3586 13.9261 20.4455C12.742 22.4494 9.44154 27.3136 4.39451 29.1797C4.13013 29.2725 3.84044 29.1431 3.74341 28.8801C3.64638 28.6172 3.77998 28.3261 4.04294 28.2291C7.33357 27.0126 10.7015 23.9105 13.0542 19.9294C14.3986 17.6569 17.4051 13.8459 22.4564 13.8459C28.0125 13.8459 31.7447 18.5358 31.7447 22.9176C31.7447 24.9033 31.4086 26.5064 31.1118 27.9211C30.87 29.0784 30.6407 30.1739 30.6407 31.2876C30.6407 33.7851 31.4972 37.1011 35.5851 38.707C35.8453 38.8083 35.9732 39.1022 35.8706 39.3637C35.7918 39.562 35.6006 39.6844 35.3995 39.6844ZM8.18857 38.5116C8.01841 38.5116 7.85247 38.4244 7.75685 38.2697C7.6106 38.032 7.68513 37.7198 7.92279 37.5736C12.5212 34.7428 18.7031 30.0544 22.0373 23.7937C22.1681 23.5462 22.4733 23.452 22.7222 23.5856C22.9683 23.7178 23.0625 24.0244 22.9303 24.2705C19.4878 30.7322 13.1568 35.5416 8.45154 38.437C8.37138 38.4862 8.27997 38.5116 8.18857 38.5116ZM38.0601 36.2616C37.9926 36.2616 37.9237 36.2475 37.8576 36.2194C34.7104 34.8497 34.0931 32.8992 34.0931 29.9883C34.0931 28.1728 34.3026 27.2616 34.5248 26.2941C34.7625 25.2619 35.0072 24.1945 35.0072 21.7926C35.0072 16.4025 30.209 10.5848 22.455 10.5848C16.5979 10.5848 13.7658 13.507 11.3653 16.4995C11.1009 16.8286 10.8126 17.2125 10.5004 17.6287C9.00982 19.6144 6.96935 22.3326 4.40716 23.3705C4.1456 23.4759 3.85169 23.3508 3.74763 23.092C3.64216 22.8319 3.76732 22.538 4.02607 22.4325C6.3281 21.4987 8.27154 18.9112 9.69044 17.0212C10.0111 16.5951 10.305 16.2014 10.575 15.8667C13.1287 12.6816 16.1493 9.57234 22.4536 9.57234C30.832 9.57234 36.0182 15.9159 36.0182 21.7926C36.0182 24.3084 35.7482 25.4841 35.5106 26.5205C35.3025 27.4289 35.1056 28.2881 35.1056 29.9883C35.1056 32.9625 35.872 34.252 38.2598 35.2912C38.5172 35.4023 38.6339 35.7005 38.5228 35.9578C38.4426 36.1476 38.2556 36.2616 38.0601 36.2616ZM38.6381 32.0386C38.534 32.0386 38.43 32.0076 38.3386 31.9416C38.1136 31.7756 38.0643 31.4592 38.2289 31.2328C39.4903 29.5059 40.275 26.4994 40.275 23.3831C40.275 21.6844 40.1386 19.8239 39.1486 17.7131C39.0304 17.46 39.1387 17.1576 39.3918 17.0395C39.645 16.9228 39.9473 17.0283 40.0654 17.2828C41.1426 19.5792 41.2875 21.6548 41.2875 23.3831C41.2875 26.7525 40.4493 29.9123 39.0459 31.8319C38.9461 31.9655 38.7928 32.0386 38.6381 32.0386ZM5.24669 16.8623C5.15107 16.8623 5.05404 16.8356 4.96826 16.7794C4.73482 16.6261 4.67013 16.3111 4.82341 16.0776C7.86654 11.4581 13.005 5.31702 22.455 5.31702C29.0109 5.31702 35.0817 8.58937 38.6929 14.0723C38.8462 14.3072 38.7815 14.6208 38.5481 14.7741C38.3161 14.9273 38.0011 14.8641 37.8464 14.6292C34.4236 9.43171 28.6706 6.32952 22.455 6.32952C13.4943 6.32952 8.58372 12.2119 5.66857 16.6359C5.57294 16.7836 5.41123 16.8623 5.24669 16.8623ZM37.6495 8.33624C37.5173 8.33624 37.3865 8.28562 37.2881 8.18437C33.4026 4.21593 28.08 1.93078 22.6842 1.91249C22.6575 1.91249 22.6308 1.91249 22.604 1.91249C16.8553 1.91249 11.7225 4.05562 7.75685 8.11406C7.56279 8.31374 7.24076 8.31656 7.04247 8.12249C6.84138 7.92702 6.83857 7.6064 7.03404 7.40671C11.1937 3.14859 16.5783 0.899994 22.604 0.899994C22.6322 0.899994 22.6603 0.899994 22.6884 0.899994C28.3528 0.919681 33.9398 3.31593 38.0109 7.47562C38.2078 7.67531 38.2036 7.99593 38.0039 8.1914C37.9054 8.28843 37.7775 8.33624 37.6495 8.33624Z" fill="white"/>
</svg>
