<svg width="52" height="20" viewBox="0 0 52 20" fill="none" xmlns="http://www.w3.org/2000/svg">
<path d="M48.1233 2.22858H44.8799C43.8993 2.22858 43.145 2.53334 42.6925 3.52382L36.5073 17.7714H40.8822C40.8822 17.7714 41.6365 15.8667 41.7873 15.4095C42.2399 15.4095 46.5393 15.4095 47.1427 15.4095C47.2936 15.9429 47.6707 17.6953 47.6707 17.6953H51.593L48.1233 2.22858ZM42.9942 12.2095C43.3713 11.2952 44.6536 7.86668 44.6536 7.86668C44.6536 7.94287 45.0308 6.95239 45.1816 6.41906L45.4833 7.79049C45.4833 7.79049 46.313 11.5238 46.4639 12.2857H42.9942V12.2095Z" fill="white"/>
<path d="M36.8091 12.6667C36.8091 15.8667 33.9428 18 29.4925 18C27.6068 18 25.7965 17.619 24.8159 17.1619L25.4193 13.6571L25.9473 13.8857C27.3051 14.4952 28.2102 14.7238 29.8696 14.7238C31.0765 14.7238 32.3588 14.2667 32.3588 13.2C32.3588 12.5143 31.8308 12.0571 30.1713 11.2952C28.5873 10.5333 26.4753 9.31429 26.4753 7.10476C26.4753 4.05714 29.4171 2 33.5656 2C35.1496 2 36.5073 2.30476 37.3371 2.68571L36.7336 6.0381L36.4319 5.73333C35.6776 5.42857 34.6971 5.12381 33.2639 5.12381C31.6799 5.2 30.9256 5.88571 30.9256 6.49524C30.9256 7.18095 31.8308 7.71429 33.2639 8.4C35.6776 9.54286 36.8091 10.8381 36.8091 12.6667Z" fill="white"/>
<path d="M0 2.38006L0.0754286 2.07529H6.56229C7.46743 2.07529 8.14629 2.38006 8.37257 3.37053L9.80572 10.2277C8.37257 6.57053 5.05371 3.5991 0 2.38006Z" fill="white"/>
<path d="M18.9324 2.22858L12.3702 17.6952H7.91987L4.14844 4.74286C6.86387 6.49524 9.12672 9.2381 9.95644 11.1429L10.409 12.7429L14.4822 2.15239H18.9324V2.22858Z" fill="white"/>
<path d="M20.6673 2.15239H24.8159L22.1759 17.6952H18.0273L20.6673 2.15239Z" fill="white"/>
</svg>
