<svg width="20" height="25" viewBox="0 0 20 25" fill="none" xmlns="http://www.w3.org/2000/svg">
<path d="M16.7183 13.7434C16.0439 10.3491 19.2656 8.35838 19.2656 8.35838C19.2656 8.35838 18.0104 6.54236 15.9008 6.07517C13.7923 5.60695 12.737 6.19194 11.6837 6.63069C10.6294 7.07052 10.1034 7.07052 10.1034 7.07052C8.58196 7.07052 7.46979 5.45965 4.5711 6.19301C2.57411 6.69698 0.471859 9.00229 0.0920296 11.7537C-0.287799 14.5062 0.531855 18.0183 2.11219 20.7403C3.69253 23.4643 5.30237 24.4881 6.44498 24.5175C7.58764 24.5459 8.7282 23.6989 10.1034 23.4927C11.4796 23.2886 12.3266 23.9915 13.6765 24.3713C15.0212 24.7501 15.4925 24.3987 17.0413 23.0813C18.5943 21.764 20 17.9857 20 17.9857C20 17.9857 17.3928 17.1397 16.7183 13.7434Z" fill="white"/>
<path d="M13.7323 3.87931C15.2263 2.35687 14.7202 0 14.7202 0C14.7202 0 12.6222 0.368269 11.2165 1.83076C9.81189 3.29432 10.0444 5.60593 10.0444 5.60593C10.0444 5.60593 12.2382 5.40077 13.7323 3.87931Z" fill="white"/>
</svg>
