<svg width="20" height="20" viewBox="0 0 20 20" fill="none" xmlns="http://www.w3.org/2000/svg">
<path d="M11.7674 8.73333C11.6111 8.5771 11.3992 8.48934 11.1782 8.48934C10.9572 8.48934 10.7453 8.5771 10.5891 8.73333L9.99989 9.32166C9.84614 9.48085 9.66223 9.60782 9.45889 9.69517C9.25555 9.78251 9.03685 9.82849 8.81555 9.83041C8.59425 9.83234 8.37479 9.79017 8.16996 9.70637C7.96514 9.62256 7.77905 9.49881 7.62256 9.34232C7.46607 9.18583 7.34232 8.99975 7.25852 8.79492C7.17471 8.59009 7.13254 8.37063 7.13447 8.14933C7.13639 7.92803 7.18237 7.70933 7.26972 7.50599C7.35706 7.30265 7.48403 7.11874 7.64322 6.965L12.3349 2.27166C13.4457 2.01902 14.6078 2.12299 15.6561 2.56881C16.7044 3.01462 17.5854 3.77958 18.174 4.75491C18.7625 5.73023 19.0286 6.86628 18.9343 8.00152C18.8401 9.13676 18.3904 10.2134 17.6491 11.0783L15.8924 12.8575L11.7674 8.7325V8.73333ZM2.63405 3.72333C3.49635 2.86114 4.62423 2.31498 5.83535 2.17313C7.04647 2.03129 8.27003 2.30206 9.30822 2.94166L6.46405 5.78666C5.84805 6.40144 5.49691 7.23275 5.48567 8.10296C5.47442 8.97318 5.80396 9.81329 6.40387 10.4438C7.00378 11.0743 7.82648 11.4451 8.69618 11.4771C9.56588 11.5091 10.4136 11.1997 11.0582 10.615L11.1782 10.5008L14.7141 14.0358L11.1782 17.5717C10.8657 17.8841 10.4418 18.0596 9.99989 18.0596C9.55795 18.0596 9.1341 17.8841 8.82155 17.5717L2.63322 11.3833C1.6175 10.3675 1.04687 8.98984 1.04688 7.55333C1.04687 6.11682 1.6175 4.73914 2.63322 3.72333H2.63405Z" fill="white"/>
</svg>
