<svg width="20" height="20" viewBox="0 0 20 20" fill="none" xmlns="http://www.w3.org/2000/svg">
<path d="M11.002 2.38801C10.7267 2.14064 10.3696 2.0038 9.9995 2.0038C9.62938 2.0038 9.27232 2.14064 8.997 2.38801L3.497 7.33001C3.34062 7.47063 3.21556 7.64257 3.12994 7.83466C3.04432 8.02675 3.00005 8.2347 3 8.44501V15.5C3 15.8978 3.15804 16.2794 3.43934 16.5607C3.72064 16.842 4.10218 17 4.5 17H6.5C6.89782 17 7.27936 16.842 7.56066 16.5607C7.84196 16.2794 8 15.8978 8 15.5V11.5C8 11.3674 8.05268 11.2402 8.14645 11.1465C8.24021 11.0527 8.36739 11 8.5 11H11.5C11.6326 11 11.7598 11.0527 11.8536 11.1465C11.9473 11.2402 12 11.3674 12 11.5V15.5C12 15.8978 12.158 16.2794 12.4393 16.5607C12.7206 16.842 13.1022 17 13.5 17H15.5C15.8978 17 16.2794 16.842 16.5607 16.5607C16.842 16.2794 17 15.8978 17 15.5V8.44501C17 8.2347 16.9557 8.02675 16.8701 7.83466C16.7844 7.64257 16.6594 7.47063 16.503 7.33001L11.003 2.38801H11.002Z" fill="white"/>
</svg>
