<svg width="14" height="20" viewBox="0 0 14 20" fill="none" xmlns="http://www.w3.org/2000/svg">
<path d="M4.65025 4.008C4.9458 3.2321 5.40541 2.62793 5.95562 2.29207C6.50582 1.9562 7.11485 1.90804 7.68536 2.15527C8.25586 2.40251 8.75491 2.93086 9.10271 3.65588C9.45052 4.38091 9.62701 5.26074 9.60397 6.15474C9.58094 7.04873 9.35971 7.90528 8.97564 8.58747C8.59157 9.26966 8.06685 9.73809 7.48534 9.9179C6.90383 10.0977 6.29911 9.9785 5.76784 9.57934C5.23658 9.18018 4.80944 8.52411 4.5547 7.716C4.38451 7.90364 4.17903 8.00453 3.96816 8.004H3.63641V8.259C3.63641 8.449 3.68418 8.622 3.76247 8.753C3.82938 8.63901 3.91774 8.55844 4.01578 8.52202C4.11383 8.4856 4.21691 8.49507 4.3113 8.54915C4.40569 8.60322 4.4869 8.69936 4.54414 8.82474C4.60137 8.95012 4.6319 9.09881 4.63167 9.251C4.63162 9.35552 4.61708 9.45886 4.58897 9.55441C4.56087 9.64996 4.51982 9.73561 4.46847 9.80585C4.41712 9.87609 4.35659 9.92937 4.29077 9.96229C4.22495 9.99521 4.15529 10.007 4.08627 9.997C3.78743 9.98119 3.50434 9.79116 3.29665 9.46694C3.08896 9.14273 2.97289 8.70966 2.9729 8.259V4.507C2.9729 4.37439 3.00785 4.24721 3.07007 4.15345C3.13228 4.05968 3.21667 4.007 3.30465 4.007H4.63167L4.65025 4.008ZM3.63641 7.004H3.96816C4.05615 7.004 4.14053 6.95132 4.20275 6.85755C4.26496 6.76378 4.29991 6.63661 4.29991 6.504V6.134C4.29797 6.04469 4.29797 5.95531 4.29991 5.866V5.007H3.63641V7.004Z" fill="#FFFEFE"/>
<path d="M2.30811 13C2.30811 11.887 2.90725 11 3.64109 11H10.2702C10.6221 11 10.9597 11.2107 11.2085 11.5858C11.4574 11.9609 11.5972 12.4696 11.5972 13C11.5972 14.691 11.0445 15.966 10.1806 16.797C9.33 17.614 8.18346 18 6.95266 18C5.72185 18 4.57531 17.614 3.72469 16.797C2.86081 15.967 2.30811 14.69 2.30811 13Z" fill="#FFFEFE"/>
</svg>
