<svg width="24" height="24" viewBox="0 0 24 24" fill="none" xmlns="http://www.w3.org/2000/svg">
<path d="M22.1364 21.076L16.4723 15.4119C17.8334 13.7779 18.5121 11.6821 18.3672 9.56047C18.2224 7.43883 17.2652 5.45471 15.6947 4.02086C14.1242 2.587 12.0614 1.81381 9.93541 1.86212C7.80939 1.91043 5.78384 2.77653 4.28012 4.28024C2.77641 5.78396 1.91031 7.80951 1.862 9.93554C1.81369 12.0616 2.58688 14.1244 4.02074 15.6948C5.45459 17.2653 7.43871 18.2225 9.56035 18.3673C11.682 18.5122 13.7778 17.8335 15.4118 16.4725L21.0758 22.1365L22.1364 21.076ZM3.38641 10.1365C3.38641 8.80151 3.78229 7.49646 4.52399 6.38643C5.26569 5.2764 6.31989 4.41123 7.55329 3.90034C8.7867 3.38945 10.1439 3.25578 11.4533 3.51623C12.7626 3.77668 13.9654 4.41955 14.9094 5.36356C15.8534 6.30756 16.4963 7.5103 16.7567 8.81967C17.0172 10.129 16.8835 11.4862 16.3726 12.7196C15.8617 13.953 14.9965 15.0073 13.8865 15.749C12.7765 16.4906 11.4714 16.8865 10.1364 16.8865C8.34681 16.8845 6.63107 16.1727 5.36563 14.9073C4.10019 13.6419 3.38839 11.9261 3.38641 10.1365Z" fill="white"/>
</svg>
