<svg width="42" height="14" viewBox="0 0 42 14" fill="none" xmlns="http://www.w3.org/2000/svg">
<path d="M38.8587 0.782837H36.264C35.4795 0.782837 34.8761 1.02665 34.514 1.81903L29.5659 13.2171H33.0658C33.0658 13.2171 33.6692 11.6933 33.7899 11.3276C34.152 11.3276 37.5915 11.3276 38.0743 11.3276C38.1949 11.7543 38.4967 13.1562 38.4967 13.1562H41.6345L38.8587 0.782837ZM34.7554 8.7676C35.0571 8.03617 36.0829 5.29331 36.0829 5.29331C36.0829 5.35427 36.3847 4.56189 36.5053 4.13522L36.7467 5.23236C36.7467 5.23236 37.4105 8.21903 37.5312 8.82855H34.7554V8.7676Z" fill="#3362AB"/>
<path d="M29.8069 9.13331C29.8069 11.6933 27.5139 13.4 23.9537 13.4C22.4451 13.4 20.9969 13.0952 20.2124 12.7295L20.6951 9.92569L21.1175 10.1085C22.2037 10.5962 22.9278 10.779 24.2554 10.779C25.2209 10.779 26.2467 10.4133 26.2467 9.55997C26.2467 9.0114 25.8243 8.64569 24.4967 8.03617C23.2295 7.42664 21.5399 6.4514 21.5399 4.68378C21.5399 2.24569 23.8933 0.599976 27.2122 0.599976C28.4794 0.599976 29.5655 0.843785 30.2293 1.14855L29.7466 3.83045L29.5052 3.58664C28.9018 3.34283 28.1173 3.09902 26.9708 3.09902C25.7036 3.15998 25.1002 3.70855 25.1002 4.19617C25.1002 4.74474 25.8243 5.1714 26.9708 5.71997C28.9018 6.63426 29.8069 7.67045 29.8069 9.13331Z" fill="#3362AB"/>
<path d="M0.359863 0.904027L0.420206 0.660217H5.60969C6.33381 0.660217 6.87689 0.904027 7.05792 1.69641L8.20444 7.18212C7.05792 4.25641 4.40283 1.87927 0.359863 0.904027Z" fill="#F9B50B"/>
<path d="M15.5059 0.782846L10.2561 13.1562H6.69585L3.67871 2.79427C5.85105 4.19618 7.66134 6.39047 8.32511 7.91428L8.68717 9.19427L11.9457 0.721893H15.5059V0.782846Z" fill="#3362AB"/>
<path d="M16.8937 0.721893H20.2126L18.1006 13.1562H14.7817L16.8937 0.721893Z" fill="#3362AB"/>
</svg>
